<svg version="1.2" xmlns="http://www.w3.org/2000/svg" viewBox="0 0 550 550" width="550" height="550">
	<style>
		.s0 { fill: #fdfdfd } 
		.s1 { fill: #87ac25 } 
	</style>
	<g id="Background">
		<path id="Path 1" fill-rule="evenodd" class="s1" d="m270 34.54c5.23 0.21 12.88 1.26 17 2.33 4.13 1.07 9.98 2.87 13 3.99 3.02 1.12 9.1 4.39 13.5 7.25 4.4 2.86 10.63 7.72 13.85 10.79 3.22 3.08 7.89 8.3 10.37 11.6 2.48 3.3 6.19 9.38 8.25 13.5 2.06 4.13 4.7 10.43 5.87 14 1.17 3.57 3 10.77 4.06 16 1.06 5.23 2.26 13.55 3.39 27.5l-7.4 4.13c-4.06 2.27-12.34 7.44-18.39 11.48-6.05 4.04-15.5 10.93-21 15.31-5.5 4.37-14.99 12.93-21.09 19.01-6.1 6.09-13.56 14.22-16.59 18.07-3.03 3.85-7.6 10.15-10.15 14-2.93 4.42-4.8 6.45-5.08 5.5-0.24-0.82-0.98-3.3-1.65-5.5-0.66-2.2-3.83-9.63-12.88-29l0.94-11.5c0.52-6.32 1.58-14.88 2.36-19 0.78-4.13 2.86-11.77 4.62-17 1.76-5.23 5.76-14.68 8.89-21 3.14-6.32 8.56-15.77 12.05-21 3.5-5.23 8.85-12.43 11.91-16 3.05-3.57 6.25-7.35 7.11-8.4 1.46-1.77 1.43-1.82-0.44-0.85-1.1 0.58-4.92 3.19-8.5 5.8-3.58 2.61-11 9.31-16.5 14.89-5.5 5.57-12.56 13.94-15.68 18.6-3.13 4.65-7.94 13.19-10.69 18.96-2.75 5.77-6.4 15.23-8.12 21-1.71 5.77-3.2 10.63-3.31 10.78-0.11 0.16-1.26-1.42-2.56-3.5-1.3-2.08-6.23-8.96-10.95-15.28-4.72-6.32-14.46-17.37-21.64-24.54-7.18-7.16-17.32-16.33-22.55-20.37-5.23-4.04-12.88-9.63-17-12.41-4.12-2.79-10.43-6.77-20.5-12.64l6-0.04c3.3-0.01 8.7-0.67 12-1.46 3.3-0.78 9.38-2.83 13.5-4.55 4.13-1.72 13.35-6.65 20.5-10.97 7.15-4.31 18.18-10.57 24.5-13.9 6.32-3.33 15.1-7.37 19.5-8.98 4.4-1.6 11.6-3.63 16-4.49 4.4-0.87 9.35-1.78 11-2.03 1.65-0.25 7.27-0.29 12.5-0.08zm111.5 28.56c6.2-0.07 12.28 0.49 16 1.46 3.3 0.86 9.15 3.22 13 5.24 4.56 2.39 9.83 6.46 15.13 11.69 4.79 4.71 10.65 11.93 20.34 27.01l-8.74 2.11c-4.8 1.15-13.9 3.69-20.23 5.63-6.33 1.93-15.44 5.15-20.25 7.14-4.81 1.99-13.25 5.87-18.75 8.62-5.5 2.75-10.11 5-10.25 5.01-0.14 0-0.58-4.61-0.98-10.25-0.4-5.64-1.65-13.86-2.78-18.26-1.13-4.4-3.19-11.15-4.59-15-1.39-3.85-4.52-10.71-11.4-23.5l8.09-2.41c4.45-1.32 9.74-2.85 11.75-3.39 2.01-0.55 8.16-1.05 13.66-1.1zm-300.1 5.75c0.61 0.44 3.35 1.62 6.1 2.61 2.75 1 9.73 4.2 15.5 7.13 5.78 2.93 15.68 8.76 22 12.98 6.33 4.21 15.75 11.09 20.94 15.29 5.19 4.2 14.19 12.39 20 18.19 5.81 5.8 13.63 14.35 17.39 19 3.75 4.65 10.13 13.4 14.17 19.45 4.03 6.05 10.08 15.95 13.43 22 3.35 6.05 8.77 17.3 12.05 25 3.71 8.72 7.47 19.94 9.99 29.75 2.21 8.66 4.66 19.46 5.44 24 0.78 4.54 1.68 12.64 2 18 0.32 5.36 0.48 9.77 0.34 9.79-0.14 0.03-3.17-2.73-6.75-6.13-3.57-3.39-10.1-9.07-14.5-12.61-4.4-3.54-15.42-11.44-24.5-17.55-9.07-6.11-20.77-14.27-26-18.13-5.23-3.85-14.92-12.44-21.55-19.07-9.15-9.15-14.21-15.3-21.05-25.55-4.95-7.43-11.98-19.35-15.61-26.5-3.64-7.15-8.05-16.6-9.81-21-1.77-4.4-3.79-9.8-4.49-12-1.04-3.22-1.31-3.51-1.4-1.5-0.06 1.38 0.58 6.55 1.43 11.5 0.85 4.95 2.64 13.05 3.99 18 1.34 4.95 3.84 12.6 5.54 17 1.71 4.4 5.06 12.05 7.45 17 2.4 4.95 5.98 11.7 7.96 15 1.98 3.3 3.58 6.23 3.55 6.5-0.03 0.27-6.68-2.83-14.78-6.9-8.1-4.08-19.9-9.61-26.23-12.31-6.32-2.7-16.23-6.39-22-8.22-5.77-1.82-12.52-3.65-19.5-4.82l0.75-12.62c0.41-6.95 1.63-18.03 2.71-24.63 1.08-6.6 3.3-16.5 4.94-22 1.64-5.5 4.53-13.82 6.41-18.5 1.88-4.68 4.67-10.98 6.19-14 1.52-3.02 4.77-8.65 7.23-12.5 2.46-3.85 5.62-8.23 7.02-9.73 1.53-1.64 2.99-2.41 3.65-1.92zm411.85 38.27c1.29-0.09 2.64 2.05 5.13 8.13 1.86 4.54 4.1 10.5 4.98 13.25 0.87 2.75 2.31 8.15 3.2 12 0.88 3.85 2.24 12.18 3.02 18.5 0.78 6.32 1.43 13.75 1.44 21.5l-13.26 2.7c-7.29 1.49-17.99 4.07-23.76 5.75-5.77 1.67-15.45 4.9-21.5 7.17-6.05 2.28-14.04 5.65-17.75 7.51-3.71 1.85-6.98 3.37-7.25 3.37-0.27 0 2.69-3.94 6.58-8.75 3.9-4.81 10.05-13.25 13.68-18.75 3.63-5.5 9-14.73 11.92-20.5 2.93-5.77 5.32-10.84 5.32-11.25 0-0.41-2.14 2.06-4.75 5.5-2.61 3.44-9.92 11.6-16.25 18.13-6.33 6.53-16.9 16.22-23.5 21.52-6.6 5.3-17.63 13.48-24.5 18.19-6.88 4.7-19.02 12.51-27 17.36-7.98 4.84-20.8 12.86-28.5 17.82-7.7 4.95-17.81 11.98-22.48 15.62-4.66 3.63-12.93 10.88-18.38 16.11-5.45 5.23-13.22 13.44-17.27 18.25-4.05 4.81-8.83 11.34-13.87 20.25l-0.3-8.5c-0.16-4.67 0.37-13 1.18-18.5 0.82-5.5 2.91-14.5 4.66-20 1.75-5.5 5.24-14.5 7.75-20 2.5-5.5 6.82-13.82 9.59-18.5 2.76-4.68 8.41-13 12.56-18.5 4.14-5.5 13.41-15.85 20.58-23 7.18-7.15 17.54-16.43 23.02-20.61 5.48-4.19 13.79-10.1 18.46-13.13 4.67-3.03 13.23-8.06 19-11.18 5.77-3.12 15.67-8.08 22-11.01 6.33-2.94 15.77-6.93 21-8.88 5.23-1.95 15.58-5.35 23-7.55 7.42-2.21 18.67-5.13 25-6.5 6.33-1.37 12.4-2.7 13.5-2.95 1.1-0.25 2.79-0.51 3.75-0.57zm-487.15 77.88c0.49 0 5.96 1.63 12.15 3.61 6.19 1.99 16.65 5.86 23.25 8.6 6.6 2.74 19.42 8.56 28.5 12.93 9.07 4.38 22.8 11.39 30.5 15.59 7.7 4.19 19.62 10.99 26.5 15.11 6.87 4.12 19.25 11.99 27.5 17.48 8.25 5.5 21.07 14.6 28.5 20.23 7.42 5.64 17.52 13.78 22.42 18.1 4.91 4.32 12.92 12.35 17.81 17.85 4.89 5.5 11.5 13.83 14.7 18.5 3.2 4.67 7.85 12.33 10.34 17 2.49 4.67 6.12 12.55 8.07 17.5 1.95 4.95 4.5 13.73 5.67 19.5 1.27 6.22 2.35 16.21 2.65 24.5 0.29 7.7 0.13 15.8-1.23 22l-4.21-8.5c-2.32-4.67-7.05-12.33-10.51-17-3.47-4.67-9.43-11.82-13.26-15.88-3.82-4.06-10.55-10.27-14.95-13.81-4.4-3.53-12.5-9.48-18-13.23-5.5-3.74-14.5-9.4-20-12.58-5.5-3.17-18.55-10.25-29-15.74-10.45-5.49-24.85-13.38-32-17.52-7.15-4.15-18.4-11.15-25-15.56-6.6-4.4-15.82-10.97-20.49-14.6-4.68-3.62-13.95-11.98-20.61-18.58-6.67-6.6-13.57-13.8-18.57-20l3.49 7c1.91 3.85 6.57 11.36 10.33 16.68 3.77 5.33 11.2 14.55 16.52 20.5 5.32 5.95 14.09 14.72 19.5 19.49 5.41 4.76 12.98 11.08 16.83 14.04 3.85 2.96 13.07 9.45 20.5 14.42 7.42 4.97 20.25 13.26 28.5 18.42 8.25 5.16 18.82 12.04 23.5 15.3 4.67 3.26 11.87 8.74 16 12.19 4.12 3.45 11.58 10.47 16.57 15.61 5 5.14 11.63 12.84 14.75 17.1 3.13 4.26 7.02 10.11 8.65 13 1.63 2.89 4.29 8.85 5.91 13.25 1.62 4.4 3.71 12.05 4.64 17 1.07 5.64 1.48 11.05 1.1 14.5-0.32 3.02-1.03 5.95-1.56 6.5-0.63 0.66-3.12-1.02-7.26-4.88-3.47-3.24-9.9-8.11-14.3-10.82-4.4-2.72-13.63-7.67-20.5-11.01-6.88-3.34-19.93-9.41-29-13.49-9.08-4.08-22.58-10.57-30-14.42-7.43-3.84-19.13-10.78-26-15.42-6.88-4.63-16.1-11.39-20.5-15.03-4.4-3.63-11.32-9.83-15.38-13.77-4.06-3.94-10.18-10.31-13.6-14.16-3.43-3.85-9.57-11.5-13.65-17-4.08-5.5-9.72-13.83-12.55-18.5-2.82-4.67-7.41-13-10.2-18.5-2.79-5.5-7.13-15.4-9.63-22-2.51-6.6-5.94-17.17-7.64-23.5-1.69-6.32-3.92-16.45-4.95-22.5-1.04-6.05-2.38-17.07-2.98-24.5-0.6-7.43-0.81-17.77-0.46-23 0.34-5.23 0.88-11.41 1.18-13.75 0.31-2.34 0.96-4.25 1.46-4.25zm535.65 0.07c3.12-0.07 3.28 0.11 3.96 4.68 0.4 2.61 0.68 12.4 0.64 21.75-0.05 10.11-0.77 21.86-1.78 29-0.93 6.6-2.61 16.27-3.73 21.5-1.13 5.23-4.27 16.25-6.99 24.5-2.82 8.56-8.12 21.44-12.35 30-4.08 8.25-10.95 20.4-15.28 27-4.32 6.6-11.49 16.5-15.93 22-4.44 5.5-12.95 14.73-18.93 20.52-5.97 5.78-15.13 13.83-20.36 17.9-5.23 4.06-14 10.31-19.5 13.9-5.5 3.58-16.52 9.77-24.5 13.75-7.98 3.98-19.9 9.48-26.5 12.22-6.6 2.75-21.23 8.68-32.5 13.19-11.27 4.5-29.5 12.61-40.5 18.01-11 5.4-23.38 11.97-27.5 14.6-4.13 2.64-10.65 7.19-14.5 10.12-3.85 2.94-7.45 5.34-8 5.34-0.55 0.01-1.56-1.13-2.25-2.52-0.97-1.95-0.99-3.61-0.12-7.28 0.62-2.61 2.79-8.35 4.82-12.75 2.03-4.4 6.21-11.83 9.29-16.5 3.08-4.67 9.38-13 14-18.5 4.62-5.5 13.55-14.73 19.84-20.5 6.29-5.77 16.6-14.37 22.93-19.1 6.32-4.72 16.66-11.95 22.99-16.05 6.33-4.09 20.5-12.79 31.5-19.31 11-6.53 26.52-16.23 34.5-21.56 7.98-5.33 19.67-13.7 25.99-18.59 6.31-4.89 16.45-13.84 22.51-19.89 6.07-6.05 13.52-14.15 16.55-18 3.03-3.85 7.1-9.25 9.03-12 1.93-2.75 5.55-8.37 8.03-12.5 2.49-4.12 6.37-11.55 8.63-16.5 2.25-4.95 5.48-12.94 7.18-17.75 1.69-4.81 3.09-9.31 3.09-10 0.01-0.69-2.77 3.48-6.17 9.25-3.4 5.77-8.45 13.65-11.21 17.5-2.76 3.85-7.97 10.56-11.58 14.92-3.6 4.35-11.05 12.17-16.55 17.36-5.5 5.2-15.85 13.84-23 19.22-7.15 5.37-17.27 12.46-22.5 15.74-5.23 3.28-15.35 9.33-22.5 13.46-7.15 4.12-19.75 11.15-28 15.62-8.25 4.47-15.34 8.14-15.75 8.15-0.41 0.02 0.12-1.88 1.18-4.22 1.07-2.34 3.05-8.08 4.4-12.75 1.36-4.67 3.24-13.45 4.2-19.5 1.34-8.52 1.59-14.27 1.13-25.5-0.33-7.98-1.21-16.98-1.96-20-0.74-3.02-1.64-5.95-2-6.5-0.35-0.55 0.35-1.97 1.58-3.15 1.22-1.19 9.42-6.85 18.22-12.59 8.8-5.73 22.08-13.96 29.5-18.29 7.42-4.32 21.15-11.53 30.5-16.02 9.35-4.5 23.08-10.68 30.5-13.73 7.42-3.06 19.8-7.63 27.5-10.16 7.7-2.54 18.73-5.69 24.5-7.01 5.77-1.33 11.96-2.44 13.75-2.48zm-177.35 84.69c0.57 0.98 0.91 6.98 0.77 13.74-0.17 8.14-1.08 16.02-2.83 24.5-1.42 6.88-3.65 15.31-4.96 18.75-1.31 3.44-4.01 9.51-6.01 13.5-1.99 3.99-5.65 10.4-8.13 14.25-2.49 3.85-6.59 9.67-9.13 12.94-2.53 3.27-8.21 8.94-12.61 12.6-4.4 3.66-11.88 10.44-16.62 15.06-4.74 4.62-10.36 10.98-12.5 14.13-2.13 3.15-4.22 5.52-4.63 5.25-0.41-0.26-1.26-5.09-1.89-10.73-0.65-5.81-0.87-15.01-0.52-21.25 0.34-6.05 1.5-14.6 2.57-19 1.07-4.4 3.56-11.83 5.54-16.5 1.98-4.67 5.45-11.65 7.71-15.5 2.26-3.85 6.52-10.26 9.47-14.25 2.96-3.99 9.76-11.81 15.12-17.39 5.36-5.58 14.25-13.83 19.75-18.33 5.5-4.51 11.78-9.39 13.95-10.85 3.64-2.45 4.02-2.52 4.95-0.92z"/>
	</g>
</svg>